<?xml version="1.0" encoding="utf-8"?>
<!-- Generator: Adobe Illustrator 24.0.1, SVG Export Plug-In . SVG Version: 6.00 Build 0)  -->
<svg version="1.1" id="Capa_1" xmlns="http://www.w3.org/2000/svg" xmlns:xlink="http://www.w3.org/1999/xlink" x="0px" y="0px"
	 viewBox="0 0 147 50" style="enable-background:new 0 0 147 50;" xml:space="preserve">
<style type="text/css">
	.st0{fill:#FFFFFF;}
</style>
<g>
	<rect x="49.47" y="11.16" class="st0" width="0.47" height="28.95"/>
</g>
<g>
	<path class="st0" d="M36.63,11.16H17.18c-1.44,0-2.56,1.17-2.56,2.51v23.92c0,1.35,1.13,2.51,2.56,2.51h19.45
		c1.44,0,2.56-1.16,2.56-2.51V13.67C39.19,12.33,38.06,11.16,36.63,11.16 M32.65,35.33h-1.42c-0.29,0-0.62-0.24-0.62-0.53
		c0,0-0.37-7.53-0.37-8.04c-0.09,0.71-2.31,8.07-2.31,8.07c-0.06,0.28-0.39,0.47-0.67,0.47h-0.74c-0.29,0-0.62-0.19-0.67-0.47
		c0,0-2.18-7.35-2.3-8.07c0,0.38-0.39,8.04-0.39,8.04c-0.02,0.28-0.32,0.53-0.61,0.53h-1.4c-0.29,0-0.48-0.24-0.46-0.53l1.04-11.71
		c0.02-0.28,0.32-0.53,0.61-0.53h1.64c0.29,0,0.61,0.19,0.67,0.47c0,0,2.2,7.65,2.26,8.31c0.06-0.64,2.27-8.31,2.27-8.31
		c0.06-0.28,0.38-0.47,0.67-0.47h1.63c0.29,0,0.6,0.25,0.61,0.53l1.02,11.71C33.13,35.08,32.94,35.33,32.65,35.33 M33.51,19.89
		c-0.33,0.55-1.09,0.72-1.69,0.37l-3.58-2.04l0,0l-1.31-0.74l-2.97,1.68h0l-1.97,1.12c-0.61,0.35-1.37,0.17-1.69-0.38
		c-0.33-0.55-0.1-1.28,0.51-1.63l3.58-2.02l1.9-1.07l0.08-0.04l0.11-0.05l0.07-0.03l0.17-0.04l0.05-0.01l0.17-0.01l0.07,0l0.15,0.02
		l0.09,0.02l0.13,0.05l0.07,0.03l0.09,0.04l3.47,1.98l0.01,0L33,18.26C33.61,18.61,33.84,19.34,33.51,19.89"/>
</g>
<g>
	<path class="st0" d="M68.11,23.49c0.02,0.17-0.02,0.29-0.1,0.35s-0.2,0.1-0.36,0.1h-0.47c-0.32,0-0.48-0.15-0.49-0.44l-0.2-5.23
		l-1.7,5.27c-0.09,0.27-0.28,0.41-0.58,0.41H63.9c-0.3,0-0.49-0.14-0.58-0.41l-1.69-5.23l-0.25,5.2c-0.01,0.3-0.17,0.44-0.49,0.44
		h-0.44c-0.16,0-0.28-0.03-0.36-0.1c-0.08-0.07-0.11-0.19-0.1-0.35l0.5-7.19c0.02-0.3,0.19-0.46,0.5-0.46h0.67
		c0.16,0,0.28,0.03,0.37,0.1c0.09,0.07,0.16,0.17,0.2,0.32l1.82,5.78c0.3-0.97,0.61-1.93,0.92-2.89c0.31-0.96,0.61-1.92,0.89-2.89
		c0.08-0.28,0.27-0.42,0.58-0.42h0.68c0.31,0,0.48,0.15,0.5,0.46L68.11,23.49z"/>
	<path class="st0" d="M73.99,21.01c0,0.47-0.04,0.89-0.13,1.27s-0.22,0.69-0.41,0.94c-0.19,0.26-0.44,0.45-0.76,0.59
		c-0.31,0.14-0.7,0.2-1.15,0.2c-0.46,0-0.85-0.07-1.16-0.2c-0.31-0.14-0.56-0.33-0.76-0.59c-0.19-0.26-0.33-0.57-0.41-0.94
		s-0.12-0.79-0.12-1.27c0-0.46,0.04-0.88,0.13-1.25c0.08-0.37,0.22-0.68,0.41-0.94c0.19-0.26,0.44-0.45,0.76-0.59
		c0.31-0.14,0.7-0.2,1.15-0.2s0.84,0.07,1.15,0.2s0.56,0.33,0.76,0.59c0.19,0.26,0.33,0.57,0.41,0.94
		C73.95,20.13,73.99,20.54,73.99,21.01z M72.65,21c0-0.65-0.08-1.13-0.24-1.43c-0.16-0.3-0.45-0.45-0.86-0.45
		c-0.42,0-0.71,0.15-0.86,0.45c-0.15,0.3-0.23,0.78-0.23,1.43c0,0.33,0.02,0.62,0.05,0.86c0.03,0.24,0.09,0.43,0.17,0.59
		c0.08,0.15,0.19,0.26,0.34,0.33s0.32,0.11,0.54,0.11c0.43,0,0.72-0.15,0.88-0.44C72.57,22.15,72.65,21.67,72.65,21z"/>
	<path class="st0" d="M78.82,23.95c-0.32,0-0.48-0.15-0.48-0.46v-3.4c0-0.29-0.06-0.52-0.19-0.7s-0.33-0.26-0.63-0.26
		c-0.29,0-0.51,0.1-0.68,0.31s-0.25,0.49-0.25,0.85v3.19c0,0.3-0.16,0.46-0.48,0.46h-0.37c-0.32,0-0.48-0.15-0.48-0.46v-4.94
		c0-0.3,0.16-0.46,0.48-0.46h0.06c0.16,0,0.28,0.03,0.37,0.09c0.09,0.06,0.16,0.16,0.22,0.31l0.04,0.1
		c0.17-0.19,0.37-0.33,0.61-0.42s0.5-0.15,0.79-0.15c0.64,0,1.1,0.16,1.39,0.47s0.43,0.8,0.43,1.46v3.55c0,0.3-0.16,0.46-0.48,0.46
		H78.82z"/>
	<path class="st0" d="M83.75,23.52c0,0.3-0.16,0.45-0.48,0.45h-0.38c-0.54,0-0.93-0.12-1.16-0.35c-0.23-0.23-0.35-0.62-0.35-1.18
		v-3.29h-0.35c-0.32,0-0.48-0.15-0.48-0.46v-0.14c0-0.3,0.16-0.46,0.48-0.46h0.36l0.19-0.9c0.06-0.28,0.25-0.42,0.55-0.42h0.07
		c0.32,0,0.48,0.15,0.48,0.44v0.88h0.58c0.32,0,0.48,0.15,0.48,0.46v0.14c0,0.3-0.16,0.46-0.48,0.46h-0.58v3.24
		c0,0.18,0.03,0.31,0.08,0.36c0.06,0.06,0.14,0.09,0.25,0.09h0.25c0.32,0,0.48,0.15,0.48,0.46V23.52z"/>
	<path class="st0" d="M88.94,21.04c0,0.3-0.16,0.44-0.48,0.44h-2.75c0.01,0.42,0.1,0.75,0.29,1c0.18,0.25,0.51,0.38,0.98,0.38
		c0.21,0,0.38-0.02,0.51-0.07c0.13-0.04,0.24-0.09,0.32-0.13c0.11-0.06,0.22-0.1,0.32-0.11s0.21,0.04,0.32,0.14l0.18,0.18
		c0.11,0.11,0.17,0.22,0.18,0.32s-0.06,0.2-0.19,0.3c-0.05,0.04-0.12,0.09-0.22,0.14c-0.1,0.05-0.21,0.11-0.35,0.16
		c-0.14,0.06-0.3,0.1-0.49,0.14c-0.19,0.04-0.41,0.05-0.65,0.05c-0.94,0-1.6-0.25-2-0.74s-0.59-1.26-0.59-2.28
		c0-0.46,0.04-0.87,0.11-1.23c0.08-0.36,0.21-0.67,0.39-0.93c0.18-0.26,0.43-0.45,0.73-0.59c0.3-0.14,0.67-0.2,1.12-0.2
		c0.4,0,0.74,0.05,1.03,0.16c0.28,0.1,0.52,0.27,0.7,0.5s0.32,0.54,0.4,0.93C88.9,20.01,88.94,20.48,88.94,21.04z M87.6,20.43
		c0-0.18-0.01-0.36-0.04-0.52c-0.02-0.16-0.07-0.31-0.13-0.43c-0.06-0.12-0.15-0.22-0.26-0.29c-0.12-0.07-0.27-0.11-0.46-0.11
		c-0.16,0-0.3,0.02-0.42,0.06c-0.12,0.04-0.22,0.11-0.31,0.22c-0.08,0.1-0.15,0.24-0.19,0.41c-0.04,0.17-0.07,0.39-0.08,0.67H87.6z"
		/>
	<path class="st0" d="M91.92,22.87h0.12l1.08-4.34c0.07-0.28,0.26-0.42,0.56-0.42h0.47c0.17,0,0.28,0.04,0.34,0.13
		s0.07,0.2,0.03,0.34l-1.48,4.96c-0.08,0.28-0.27,0.42-0.56,0.42h-1c-0.3,0-0.5-0.14-0.58-0.42l-1.49-4.96
		c-0.04-0.14-0.03-0.25,0.02-0.34c0.06-0.09,0.18-0.13,0.36-0.13h0.48c0.3,0,0.49,0.14,0.56,0.42L91.92,22.87z"/>
	<path class="st0" d="M95.45,15.85c0-0.3,0.16-0.46,0.48-0.46h0.42c0.32,0,0.48,0.15,0.48,0.46v0.68c0,0.3-0.16,0.46-0.48,0.46
		h-0.42c-0.32,0-0.48-0.15-0.48-0.46V15.85z M95.48,18.55c0-0.3,0.16-0.44,0.48-0.44h0.35c0.32,0,0.48,0.15,0.48,0.44v4.94
		c0,0.3-0.16,0.46-0.48,0.46h-0.35c-0.32,0-0.48-0.15-0.48-0.46V18.55z"/>
	<path class="st0" d="M100.06,18.03c0.3,0,0.55,0.03,0.75,0.1c0.2,0.07,0.39,0.21,0.59,0.44v-0.11v-1.28v-0.16v-1.18
		c0-0.3,0.16-0.46,0.48-0.46h0.36c0.32,0,0.48,0.15,0.48,0.46v7.64c0,0.3-0.16,0.46-0.48,0.46h-0.06c-0.16,0-0.28-0.03-0.37-0.09
		s-0.16-0.16-0.22-0.31l-0.05-0.13c-0.02,0.02-0.05,0.06-0.11,0.12c-0.06,0.06-0.15,0.13-0.26,0.2c-0.12,0.07-0.26,0.13-0.43,0.19
		c-0.17,0.06-0.36,0.08-0.59,0.08c-0.41,0-0.75-0.07-1.01-0.22c-0.27-0.15-0.48-0.36-0.64-0.63s-0.27-0.59-0.34-0.97
		c-0.06-0.37-0.1-0.78-0.1-1.23c0-0.44,0.04-0.84,0.13-1.2s0.21-0.67,0.38-0.92c0.17-0.26,0.38-0.45,0.62-0.59
		C99.44,18.1,99.73,18.03,100.06,18.03z M100.4,22.92c0.28,0,0.49-0.11,0.64-0.34c0.15-0.22,0.27-0.54,0.35-0.95V20.5
		c-0.06-0.45-0.18-0.79-0.35-1.03c-0.17-0.24-0.39-0.36-0.67-0.36c-0.19,0-0.35,0.04-0.47,0.13c-0.12,0.09-0.22,0.21-0.28,0.38
		c-0.06,0.16-0.11,0.36-0.13,0.59c-0.02,0.23-0.04,0.49-0.04,0.78c0,0.62,0.06,1.09,0.19,1.42S100.03,22.92,100.4,22.92z"/>
	<path class="st0" d="M108.65,21.04c0,0.3-0.16,0.44-0.48,0.44h-2.75c0.01,0.42,0.1,0.75,0.29,1s0.51,0.38,0.98,0.38
		c0.21,0,0.38-0.02,0.51-0.07s0.24-0.09,0.32-0.13c0.11-0.06,0.22-0.1,0.32-0.11c0.1-0.01,0.21,0.04,0.32,0.14l0.18,0.18
		c0.11,0.11,0.17,0.22,0.18,0.32s-0.06,0.2-0.19,0.3c-0.05,0.04-0.12,0.09-0.22,0.14c-0.1,0.05-0.21,0.11-0.35,0.16
		c-0.14,0.06-0.3,0.1-0.49,0.14c-0.19,0.04-0.41,0.05-0.65,0.05c-0.94,0-1.6-0.25-2-0.74c-0.4-0.5-0.59-1.26-0.59-2.28
		c0-0.46,0.04-0.87,0.11-1.23c0.08-0.36,0.21-0.67,0.39-0.93c0.18-0.26,0.43-0.45,0.73-0.59c0.3-0.14,0.67-0.2,1.12-0.2
		c0.4,0,0.74,0.05,1.03,0.16s0.52,0.27,0.7,0.5c0.18,0.23,0.32,0.54,0.4,0.93C108.61,20.01,108.65,20.48,108.65,21.04z M107.3,20.43
		c0-0.18-0.01-0.36-0.04-0.52c-0.02-0.16-0.07-0.31-0.13-0.43c-0.06-0.12-0.15-0.22-0.26-0.29c-0.12-0.07-0.27-0.11-0.46-0.11
		c-0.16,0-0.3,0.02-0.42,0.06s-0.22,0.11-0.31,0.22c-0.08,0.1-0.15,0.24-0.19,0.41c-0.04,0.17-0.07,0.39-0.08,0.67H107.3z"/>
	<path class="st0" d="M114.42,21.01c0,0.47-0.04,0.89-0.13,1.27s-0.22,0.69-0.41,0.94c-0.19,0.26-0.44,0.45-0.76,0.59
		c-0.31,0.14-0.7,0.2-1.15,0.2c-0.46,0-0.85-0.07-1.16-0.2c-0.31-0.14-0.56-0.33-0.76-0.59c-0.19-0.26-0.33-0.57-0.41-0.94
		s-0.12-0.79-0.12-1.27c0-0.46,0.04-0.88,0.13-1.25c0.08-0.37,0.22-0.68,0.41-0.94c0.19-0.26,0.44-0.45,0.76-0.59s0.7-0.2,1.15-0.2
		s0.84,0.07,1.15,0.2c0.31,0.14,0.56,0.33,0.76,0.59c0.19,0.26,0.33,0.57,0.41,0.94C114.38,20.13,114.42,20.54,114.42,21.01z
		 M113.08,21c0-0.65-0.08-1.13-0.24-1.43c-0.16-0.3-0.45-0.45-0.86-0.45c-0.42,0-0.71,0.15-0.86,0.45c-0.15,0.3-0.23,0.78-0.23,1.43
		c0,0.33,0.02,0.62,0.05,0.86c0.03,0.24,0.09,0.43,0.17,0.59c0.08,0.15,0.19,0.26,0.34,0.33c0.14,0.07,0.32,0.11,0.54,0.11
		c0.43,0,0.72-0.15,0.88-0.44C113,22.15,113.08,21.67,113.08,21z"/>
	<path class="st0" d="M63.16,26.73c0.26,0,0.49,0.02,0.69,0.05c0.2,0.04,0.36,0.08,0.5,0.14c0.14,0.06,0.26,0.11,0.35,0.17
		c0.09,0.06,0.17,0.1,0.22,0.14c0.13,0.1,0.19,0.2,0.19,0.3c0,0.1-0.06,0.21-0.16,0.32l-0.18,0.2c-0.1,0.11-0.21,0.17-0.31,0.17
		s-0.22-0.03-0.35-0.1c-0.09-0.04-0.21-0.09-0.35-0.14c-0.15-0.05-0.33-0.08-0.53-0.08c-0.66,0-1.13,0.23-1.41,0.68
		s-0.41,1.19-0.41,2.21c0,1.05,0.14,1.8,0.43,2.26c0.28,0.46,0.75,0.69,1.39,0.69c0.28,0,0.5-0.04,0.67-0.11
		c0.17-0.08,0.3-0.14,0.38-0.2c0.12-0.08,0.23-0.12,0.33-0.13c0.1,0,0.21,0.05,0.32,0.15l0.22,0.19c0.26,0.23,0.26,0.44,0.02,0.64
		c-0.05,0.04-0.12,0.1-0.22,0.17c-0.1,0.07-0.23,0.14-0.39,0.22c-0.16,0.07-0.37,0.14-0.61,0.19c-0.24,0.06-0.52,0.08-0.84,0.08
		c-0.57,0-1.05-0.09-1.45-0.28c-0.4-0.18-0.73-0.45-0.98-0.8c-0.25-0.35-0.44-0.79-0.55-1.3c-0.12-0.52-0.17-1.11-0.17-1.78
		c0-0.63,0.06-1.2,0.19-1.7s0.32-0.93,0.59-1.28c0.26-0.35,0.6-0.62,1-0.8S62.6,26.73,63.16,26.73z"/>
	<path class="st0" d="M70.88,31.96c0,0.47-0.04,0.89-0.13,1.27s-0.22,0.69-0.41,0.94c-0.19,0.26-0.44,0.45-0.76,0.59
		s-0.7,0.2-1.15,0.2c-0.46,0-0.85-0.07-1.16-0.2s-0.56-0.33-0.76-0.59c-0.19-0.26-0.33-0.57-0.41-0.94s-0.12-0.79-0.12-1.27
		c0-0.46,0.04-0.88,0.13-1.25s0.22-0.68,0.41-0.94c0.19-0.26,0.44-0.45,0.76-0.59c0.31-0.14,0.7-0.2,1.15-0.2s0.84,0.07,1.15,0.2
		c0.31,0.14,0.56,0.33,0.76,0.59c0.19,0.26,0.33,0.57,0.41,0.94S70.88,31.5,70.88,31.96z M69.54,31.96c0-0.65-0.08-1.13-0.24-1.43
		s-0.45-0.45-0.86-0.45c-0.42,0-0.71,0.15-0.86,0.45s-0.23,0.78-0.23,1.43c0,0.33,0.02,0.62,0.05,0.86
		c0.03,0.24,0.09,0.43,0.17,0.59c0.08,0.15,0.19,0.26,0.34,0.33c0.14,0.07,0.32,0.11,0.54,0.11c0.43,0,0.72-0.15,0.88-0.44
		C69.46,33.11,69.54,32.63,69.54,31.96z"/>
	<path class="st0" d="M75.71,34.9c-0.32,0-0.48-0.15-0.48-0.46v-3.4c0-0.29-0.06-0.52-0.19-0.7s-0.33-0.26-0.63-0.26
		c-0.29,0-0.51,0.1-0.68,0.31s-0.25,0.49-0.25,0.85v3.19c0,0.3-0.16,0.46-0.48,0.46h-0.37c-0.32,0-0.48-0.15-0.48-0.46V29.5
		c0-0.3,0.16-0.46,0.48-0.46h0.06c0.16,0,0.28,0.03,0.37,0.09c0.09,0.06,0.16,0.16,0.22,0.31l0.04,0.1
		c0.17-0.19,0.37-0.33,0.61-0.42c0.24-0.1,0.5-0.15,0.79-0.15c0.64,0,1.1,0.16,1.39,0.47s0.43,0.8,0.43,1.46v3.55
		c0,0.3-0.16,0.46-0.48,0.46H75.71z"/>
	<path class="st0" d="M81.98,29.06c0.32,0,0.48,0.15,0.48,0.46v5.4v0.12c-0.02,0.71-0.23,1.27-0.63,1.69
		c-0.4,0.41-1.01,0.62-1.82,0.62c-0.26,0-0.48-0.02-0.68-0.05c-0.2-0.04-0.38-0.08-0.53-0.13c-0.16-0.05-0.29-0.11-0.41-0.17
		c-0.12-0.06-0.21-0.13-0.29-0.19c-0.11-0.09-0.17-0.19-0.17-0.31s0.03-0.23,0.1-0.34l0.13-0.2c0.09-0.13,0.18-0.2,0.29-0.21
		s0.21,0.02,0.32,0.1c0.2,0.14,0.4,0.23,0.59,0.28c0.2,0.05,0.39,0.08,0.57,0.08c0.36,0,0.65-0.09,0.88-0.26
		c0.22-0.17,0.34-0.47,0.34-0.89v-0.5c-0.16,0.14-0.34,0.24-0.55,0.32c-0.21,0.07-0.44,0.11-0.71,0.11c-0.64,0-1.14-0.24-1.49-0.71
		c-0.36-0.47-0.53-1.23-0.53-2.28c0-0.42,0.03-0.82,0.1-1.18c0.07-0.36,0.18-0.68,0.34-0.95c0.16-0.27,0.38-0.48,0.65-0.63
		c0.28-0.15,0.63-0.23,1.05-0.23c0.56,0,0.99,0.19,1.3,0.58l0.04-0.11c0.05-0.14,0.12-0.25,0.22-0.31c0.1-0.06,0.22-0.09,0.38-0.09
		H81.98z M80.17,33.85c0.54,0,0.87-0.4,0.97-1.21v-1.28c-0.11-0.86-0.43-1.29-0.96-1.29c-0.22,0-0.39,0.05-0.52,0.16
		c-0.13,0.11-0.22,0.25-0.28,0.43c-0.06,0.18-0.1,0.38-0.11,0.62c-0.02,0.23-0.02,0.47-0.02,0.71c0,0.69,0.07,1.17,0.22,1.45
		C79.62,33.71,79.85,33.85,80.17,33.85z"/>
	<path class="st0" d="M88.4,32c0,0.3-0.16,0.44-0.48,0.44h-2.75c0.01,0.42,0.1,0.75,0.29,1c0.18,0.25,0.51,0.38,0.98,0.38
		c0.21,0,0.38-0.02,0.51-0.07c0.13-0.04,0.24-0.09,0.32-0.13c0.11-0.06,0.22-0.1,0.32-0.11s0.21,0.04,0.32,0.14l0.18,0.18
		c0.11,0.11,0.17,0.22,0.18,0.32c0.01,0.1-0.06,0.2-0.19,0.3c-0.05,0.04-0.12,0.09-0.22,0.14c-0.1,0.05-0.21,0.11-0.35,0.16
		c-0.14,0.06-0.3,0.1-0.49,0.14c-0.19,0.04-0.41,0.05-0.65,0.05c-0.94,0-1.6-0.25-2-0.74s-0.59-1.26-0.59-2.28
		c0-0.46,0.04-0.87,0.11-1.23c0.08-0.36,0.21-0.67,0.39-0.93c0.18-0.26,0.43-0.45,0.73-0.59c0.3-0.14,0.67-0.2,1.12-0.2
		c0.4,0,0.74,0.05,1.03,0.16c0.28,0.1,0.52,0.27,0.7,0.5c0.18,0.23,0.32,0.54,0.4,0.93C88.36,30.96,88.4,31.44,88.4,32z
		 M87.06,31.39c0-0.18-0.01-0.36-0.04-0.52c-0.02-0.16-0.07-0.31-0.13-0.43c-0.06-0.12-0.15-0.22-0.26-0.29
		c-0.12-0.07-0.27-0.11-0.46-0.11c-0.16,0-0.3,0.02-0.42,0.06c-0.12,0.04-0.22,0.11-0.31,0.22c-0.08,0.1-0.15,0.24-0.19,0.41
		c-0.04,0.17-0.07,0.39-0.08,0.67H87.06z"/>
	<path class="st0" d="M91.03,33.85c0.24,0,0.43-0.05,0.56-0.16c0.13-0.1,0.2-0.25,0.2-0.43c0-0.26-0.07-0.45-0.21-0.58
		c-0.14-0.13-0.39-0.24-0.76-0.32c-0.19-0.05-0.38-0.12-0.56-0.2c-0.18-0.09-0.35-0.2-0.49-0.34c-0.14-0.14-0.26-0.31-0.34-0.5
		c-0.08-0.19-0.13-0.41-0.13-0.66c0-0.53,0.17-0.94,0.52-1.23s0.83-0.44,1.45-0.44c0.34,0,0.62,0.05,0.86,0.14
		c0.24,0.09,0.44,0.2,0.61,0.32c0.27,0.2,0.28,0.42,0.02,0.65l-0.17,0.16c-0.12,0.11-0.23,0.17-0.34,0.16
		c-0.11,0-0.23-0.05-0.35-0.14c-0.04-0.03-0.12-0.08-0.23-0.13c-0.11-0.06-0.25-0.08-0.41-0.08c-0.21,0-0.38,0.04-0.52,0.13
		c-0.14,0.09-0.2,0.23-0.2,0.42c0,0.22,0.08,0.39,0.25,0.49c0.17,0.1,0.4,0.19,0.71,0.27c0.52,0.14,0.91,0.35,1.17,0.64
		c0.26,0.29,0.39,0.69,0.39,1.19s-0.18,0.92-0.53,1.26s-0.85,0.5-1.5,0.5c-0.26,0-0.48-0.02-0.68-0.06
		c-0.2-0.04-0.37-0.09-0.52-0.15c-0.15-0.06-0.27-0.12-0.37-0.18c-0.1-0.06-0.18-0.11-0.23-0.16c-0.13-0.1-0.19-0.21-0.17-0.31
		c0.01-0.1,0.07-0.21,0.16-0.32l0.16-0.17c0.18-0.21,0.4-0.24,0.65-0.08c0.09,0.06,0.22,0.12,0.38,0.2S90.78,33.85,91.03,33.85z"/>
	<path class="st0" d="M96.82,34.48c0,0.3-0.16,0.45-0.48,0.45h-0.38c-0.54,0-0.93-0.12-1.16-0.35c-0.23-0.23-0.35-0.62-0.35-1.18
		v-3.29h-0.35c-0.32,0-0.48-0.15-0.48-0.46v-0.14c0-0.3,0.16-0.46,0.48-0.46h0.36l0.19-0.9c0.06-0.28,0.25-0.42,0.55-0.42h0.07
		c0.32,0,0.48,0.15,0.48,0.44v0.88h0.58c0.32,0,0.48,0.15,0.48,0.46v0.14c0,0.3-0.16,0.46-0.48,0.46h-0.58v3.24
		c0,0.18,0.03,0.3,0.08,0.36c0.06,0.06,0.14,0.09,0.25,0.09h0.25c0.32,0,0.48,0.15,0.48,0.46V34.48z"/>
	<path class="st0" d="M97.76,26.8c0-0.3,0.16-0.46,0.48-0.46h0.42c0.32,0,0.48,0.15,0.48,0.46v0.68c0,0.3-0.16,0.46-0.48,0.46h-0.42
		c-0.32,0-0.48-0.15-0.48-0.46V26.8z M97.8,29.5c0-0.3,0.16-0.44,0.48-0.44h0.35c0.32,0,0.48,0.15,0.48,0.44v4.94
		c0,0.3-0.16,0.46-0.48,0.46h-0.35c-0.32,0-0.48-0.15-0.48-0.46V29.5z"/>
	<path class="st0" d="M105.27,31.96c0,0.47-0.04,0.89-0.13,1.27s-0.22,0.69-0.41,0.94c-0.19,0.26-0.44,0.45-0.76,0.59
		c-0.31,0.14-0.7,0.2-1.15,0.2c-0.46,0-0.85-0.07-1.16-0.2c-0.31-0.14-0.56-0.33-0.76-0.59c-0.19-0.26-0.33-0.57-0.41-0.94
		s-0.12-0.79-0.12-1.27c0-0.46,0.04-0.88,0.13-1.25s0.22-0.68,0.41-0.94c0.19-0.26,0.44-0.45,0.76-0.59c0.31-0.14,0.7-0.2,1.15-0.2
		s0.84,0.07,1.15,0.2c0.31,0.14,0.56,0.33,0.76,0.59c0.19,0.26,0.33,0.57,0.41,0.94S105.27,31.5,105.27,31.96z M103.93,31.96
		c0-0.65-0.08-1.13-0.24-1.43s-0.45-0.45-0.86-0.45c-0.42,0-0.71,0.15-0.86,0.45c-0.15,0.3-0.23,0.78-0.23,1.43
		c0,0.33,0.02,0.62,0.05,0.86c0.03,0.24,0.09,0.43,0.17,0.59c0.08,0.15,0.19,0.26,0.34,0.33c0.14,0.07,0.32,0.11,0.54,0.11
		c0.43,0,0.72-0.15,0.88-0.44C103.85,33.11,103.93,32.63,103.93,31.96z M102.91,28.12c-0.22,0-0.36-0.06-0.41-0.18
		c-0.05-0.12-0.03-0.26,0.07-0.42l0.64-1.03c0.14-0.23,0.35-0.35,0.65-0.35h0.26c0.22,0,0.36,0.06,0.42,0.17
		c0.06,0.12,0.02,0.25-0.1,0.41l-0.78,1.08c-0.16,0.21-0.38,0.31-0.65,0.31H102.91z"/>
	<path class="st0" d="M110.1,34.9c-0.32,0-0.48-0.15-0.48-0.46v-3.4c0-0.29-0.06-0.52-0.19-0.7s-0.33-0.26-0.63-0.26
		c-0.29,0-0.51,0.1-0.68,0.31s-0.25,0.49-0.25,0.85v3.19c0,0.3-0.16,0.46-0.48,0.46h-0.37c-0.32,0-0.48-0.15-0.48-0.46V29.5
		c0-0.3,0.16-0.46,0.48-0.46h0.06c0.16,0,0.28,0.03,0.37,0.09s0.16,0.16,0.22,0.31l0.04,0.1c0.17-0.19,0.37-0.33,0.61-0.42
		c0.24-0.1,0.5-0.15,0.79-0.15c0.64,0,1.1,0.16,1.39,0.47s0.43,0.8,0.43,1.46v3.55c0,0.3-0.16,0.46-0.48,0.46H110.1z"/>
	<path class="st0" d="M119.15,34.49c-0.08,0.27-0.27,0.41-0.56,0.41h-1.15c-0.3,0-0.48-0.14-0.56-0.41l-2.2-7.21
		c-0.04-0.14-0.03-0.26,0.02-0.35c0.05-0.09,0.17-0.13,0.35-0.13h0.55c0.3,0,0.48,0.14,0.56,0.42l1.73,6.41h0.25l1.72-6.41
		c0.07-0.28,0.26-0.42,0.56-0.42h0.46c0.18,0,0.3,0.04,0.35,0.13c0.05,0.09,0.06,0.2,0.02,0.35L119.15,34.49z"/>
	<path class="st0" d="M122.16,26.8c0-0.3,0.16-0.46,0.48-0.46h0.42c0.32,0,0.48,0.15,0.48,0.46v0.68c0,0.3-0.16,0.46-0.48,0.46
		h-0.42c-0.32,0-0.48-0.15-0.48-0.46V26.8z M122.2,29.5c0-0.3,0.16-0.44,0.48-0.44h0.35c0.32,0,0.48,0.15,0.48,0.44v4.94
		c0,0.3-0.16,0.46-0.48,0.46h-0.35c-0.32,0-0.48-0.15-0.48-0.46V29.5z"/>
	<path class="st0" d="M126.92,28.99c0.38,0,0.72,0.03,1,0.09c0.28,0.06,0.52,0.17,0.7,0.32c0.18,0.15,0.32,0.35,0.41,0.61
		s0.14,0.57,0.14,0.97v3.48c0,0.3-0.16,0.46-0.48,0.46h-0.06c-0.16,0-0.28-0.03-0.37-0.1s-0.16-0.16-0.22-0.3L128,34.39
		c-0.18,0.21-0.4,0.36-0.66,0.44c-0.26,0.09-0.54,0.13-0.84,0.13c-0.52,0-0.94-0.16-1.26-0.47c-0.32-0.31-0.48-0.75-0.48-1.31
		c0-0.3,0.06-0.55,0.17-0.77c0.11-0.22,0.27-0.4,0.46-0.55c0.2-0.14,0.43-0.25,0.7-0.32c0.27-0.07,0.56-0.11,0.87-0.11h0.67
		c0.16,0,0.24-0.08,0.24-0.24v-0.18c0-0.34-0.07-0.56-0.22-0.68c-0.15-0.12-0.39-0.19-0.73-0.2c-0.23,0-0.42,0.02-0.58,0.05
		s-0.27,0.07-0.35,0.1c-0.14,0.06-0.26,0.09-0.36,0.1c-0.1,0.01-0.2-0.05-0.29-0.17l-0.12-0.19c-0.09-0.13-0.14-0.24-0.14-0.35
		c-0.01-0.1,0.05-0.2,0.17-0.3c0.05-0.04,0.13-0.08,0.24-0.13c0.11-0.04,0.24-0.08,0.4-0.13c0.15-0.04,0.32-0.07,0.49-0.1
		C126.56,29,126.74,28.99,126.92,28.99z M127.87,32.44h-0.62c-0.34,0-0.61,0.05-0.82,0.15c-0.21,0.1-0.32,0.3-0.32,0.59
		c0,0.24,0.07,0.42,0.2,0.54s0.3,0.18,0.48,0.18c0.17,0,0.32-0.03,0.46-0.09c0.14-0.06,0.25-0.14,0.34-0.23s0.16-0.19,0.21-0.3
		c0.05-0.11,0.07-0.21,0.07-0.31V32.44z"/>
	<path class="st0" d="M130.85,26.8c0-0.3,0.16-0.46,0.48-0.46h0.36c0.32,0,0.48,0.15,0.48,0.46v7.64c0,0.3-0.16,0.46-0.48,0.46
		h-0.36c-0.32,0-0.48-0.15-0.48-0.46V26.8z"/>
</g>
</svg>
