<?xml version="1.0" encoding="utf-8"?>
<!-- Generator: Adobe Illustrator 25.0.1, SVG Export Plug-In . SVG Version: 6.00 Build 0)  -->
<svg version="1.1" id="Matriz_Calor" xmlns="http://www.w3.org/2000/svg" xmlns:xlink="http://www.w3.org/1999/xlink" x="0px"
	 y="0px" viewBox="0 0 14 14" style="enable-background:new 0 0 14 14;" xml:space="preserve">
<path d="M5.12,0.52C5.43,0.69,5.73,0.83,6.04,1c0.89,0.51,1.64,1.2,2.12,2.12C8.67,4,8.81,4.96,8.7,5.95c0,0.17-0.03,0.38-0.03,0.58
	c1.09-0.65,1.4-1.67,1.26-2.94c0.2,0.17,0.44,0.31,0.61,0.48c0.89,0.79,1.37,1.81,1.57,2.97c0.14,0.72,0.17,1.47,0,2.19
	c-0.24,1.3-0.85,2.32-1.84,3.11c-1.09,0.85-2.36,1.23-3.72,1.13C4.5,13.26,3,12.2,2.15,10.32C1.4,8.61,1.57,6.94,2.59,5.4
	c0.44-0.65,0.96-1.23,1.43-1.84c0.38-0.48,0.72-1.02,0.92-1.6C5.08,1.58,5.12,1.2,5.12,0.79C5.12,0.72,5.12,0.65,5.12,0.52z"/>
</svg>
