<?xml version="1.0" encoding="utf-8"?>
<!-- Generator: Adobe Illustrator 25.0.1, SVG Export Plug-In . SVG Version: 6.00 Build 0)  -->
<svg version="1.1" id="MAPA" xmlns="http://www.w3.org/2000/svg" xmlns:xlink="http://www.w3.org/1999/xlink" x="0px" y="0px"
	 viewBox="0 0 14 14" style="enable-background:new 0 0 14 14;" xml:space="preserve">
<path d="M6.99,0.47c-3.6,0-6.55,2.92-6.55,6.55s2.92,6.55,6.55,6.55c3.6,0,6.55-2.92,6.55-6.55S10.59,0.47,6.99,0.47z M2.64,3.78
	C2.97,3.39,3.43,2.89,3.86,2.6l0.68-0.46L4.14,2.85C4,3.17,3.86,3.42,3.75,3.78H2.64z M2.15,8.94C1.9,8.34,1.79,7.7,1.79,7.02
	S1.9,5.7,2.15,5.1h1.07C3.11,5.7,3.04,6.38,3.04,7.02S3.11,8.3,3.21,8.94H2.15z M3.86,11.44c-0.43-0.32-0.89-0.78-1.21-1.18h1.1
	c0.11,0.36,0.25,0.61,0.39,0.93l0.39,0.71L3.86,11.44z M6.35,12.01c-0.53-0.28-1.03-0.89-1.39-1.75h1.39V12.01z M6.35,8.94H4.53
	C4.43,8.3,4.35,7.66,4.35,7.02S4.43,5.7,4.57,5.1h1.78V8.94z M6.35,3.78H4.96c0.36-0.85,0.85-1.46,1.39-1.75V3.78z M10.12,2.6
	c0.43,0.28,0.78,0.64,1.1,1.07l0.11,0.11h-1.1c-0.11-0.36-0.25-0.61-0.39-0.93L9.45,2.14L10.12,2.6z M7.67,2
	C8.2,2.28,8.7,2.92,9.06,3.74H7.67V2z M7.67,12.01v-1.75h1.39C8.66,11.12,8.2,11.72,7.67,12.01z M7.67,8.94V5.1h1.78
	C9.59,5.7,9.66,6.38,9.66,7.02S9.59,8.34,9.45,8.94H7.67z M11.37,10.26c-0.32,0.39-0.82,0.85-1.25,1.18L9.48,11.9l0.39-0.71
	c0.14-0.32,0.28-0.57,0.39-0.93H11.37z M10.8,8.94c0.11-0.64,0.14-1.28,0.14-1.92s-0.07-1.28-0.18-1.92h1.07
	c0.25,0.61,0.36,1.25,0.36,1.92s-0.11,1.32-0.36,1.92H10.8z"/>
</svg>
